<mxfile host="65bd71144e">
    <diagram id="GkdnXFTpEQJnH0Vaa9NC" name="Page-1">
        <mxGraphModel dx="3033" dy="2468" grid="0" gridSize="10" guides="1" tooltips="1" connect="1" arrows="1" fold="1" page="1" pageScale="1" pageWidth="850" pageHeight="1100" math="0" shadow="1">
            <root>
                <mxCell id="0"/>
                <mxCell id="1" parent="0"/>
                <mxCell id="147" value="" style="rounded=1;whiteSpace=wrap;html=1;strokeWidth=2;fillWeight=4;hachureGap=8;hachureAngle=45;fillColor=#1ba1e2;sketch=1;" parent="1" vertex="1">
                    <mxGeometry x="-491" y="-1025" width="1062" height="393" as="geometry"/>
                </mxCell>
                <mxCell id="95" style="edgeStyle=none;html=1;exitX=1;exitY=0.5;exitDx=0;exitDy=0;entryX=0;entryY=0.5;entryDx=0;entryDy=0;" parent="1" source="93" target="94" edge="1">
                    <mxGeometry relative="1" as="geometry"/>
                </mxCell>
                <mxCell id="93" value="&lt;font style=&quot;font-size: 24px;&quot;&gt;&lt;b&gt;CoreNode&lt;/b&gt;&lt;/font&gt;" style="whiteSpace=wrap;html=1;aspect=fixed;fillColor=#E8FF59;" parent="1" vertex="1">
                    <mxGeometry x="-736" y="-451" width="133" height="133" as="geometry"/>
                </mxCell>
                <mxCell id="94" value="&lt;b&gt;&lt;font style=&quot;font-size: 36px;&quot;&gt;InterfaceNode&lt;/font&gt;&lt;/b&gt;" style="whiteSpace=wrap;html=1;aspect=fixed;" parent="1" vertex="1">
                    <mxGeometry x="-445" y="-536" width="303" height="303" as="geometry"/>
                </mxCell>
                <mxCell id="96" value="&lt;span style=&quot;color: rgb(0, 0, 0); font-family: Helvetica; font-style: normal; font-variant-ligatures: normal; font-variant-caps: normal; font-weight: 700; letter-spacing: normal; orphans: 2; text-align: center; text-indent: 0px; text-transform: none; widows: 2; word-spacing: 0px; -webkit-text-stroke-width: 0px; white-space: normal; background-color: rgb(251, 251, 251); text-decoration-thickness: initial; text-decoration-style: initial; text-decoration-color: initial; float: none; display: inline !important;&quot;&gt;&lt;font style=&quot;font-size: 24px;&quot;&gt;/odom&lt;/font&gt;&lt;/span&gt;" style="text;whiteSpace=wrap;html=1;" parent="1" vertex="1">
                    <mxGeometry x="-593" y="-413" width="113" height="39" as="geometry"/>
                </mxCell>
                <mxCell id="97" value="&lt;font style=&quot;font-size: 24px;&quot;&gt;&lt;b&gt;Redis Clinet&lt;/b&gt;&lt;/font&gt;" style="whiteSpace=wrap;html=1;aspect=fixed;fillColor=#6CFF2D;" parent="1" vertex="1">
                    <mxGeometry x="486" y="-83" width="131" height="131" as="geometry"/>
                </mxCell>
                <mxCell id="100" value="" style="edgeStyle=elbowEdgeStyle;elbow=vertical;endArrow=classic;html=1;curved=0;rounded=0;endSize=8;startSize=8;" parent="1" edge="1">
                    <mxGeometry width="50" height="50" relative="1" as="geometry">
                        <mxPoint x="479" y="-4" as="sourcePoint"/>
                        <mxPoint x="-46" y="9" as="targetPoint"/>
                        <Array as="points"/>
                    </mxGeometry>
                </mxCell>
                <mxCell id="101" value="&lt;b&gt;&lt;font style=&quot;font-size: 24px;&quot;&gt;PoseMonitor&lt;/font&gt;&lt;/b&gt;" style="whiteSpace=wrap;html=1;aspect=fixed;" parent="1" vertex="1">
                    <mxGeometry x="-445" y="-96" width="133" height="133" as="geometry"/>
                </mxCell>
                <mxCell id="102" value="&lt;span style=&quot;color: rgb(0, 0, 0);&quot;&gt;&lt;font style=&quot;font-size: 24px;&quot;&gt;&lt;b&gt;Redis server&lt;/b&gt;&lt;/font&gt;&lt;/span&gt;" style="whiteSpace=wrap;html=1;aspect=fixed;" parent="1" vertex="1">
                    <mxGeometry x="-183" y="-96" width="133" height="133" as="geometry"/>
                </mxCell>
                <mxCell id="151" style="edgeStyle=none;html=1;exitX=0.5;exitY=1;exitDx=0;exitDy=0;entryX=0.5;entryY=0;entryDx=0;entryDy=0;" parent="1" source="105" target="150" edge="1">
                    <mxGeometry relative="1" as="geometry"/>
                </mxCell>
                <mxCell id="105" value="&lt;font style=&quot;font-size: 24px;&quot;&gt;&lt;b&gt;MapManager&lt;/b&gt;&lt;/font&gt;" style="whiteSpace=wrap;html=1;aspect=fixed;" parent="1" vertex="1">
                    <mxGeometry x="-666" y="-96" width="133" height="133" as="geometry"/>
                </mxCell>
                <mxCell id="130" style="edgeStyle=none;html=1;exitX=0.5;exitY=0;exitDx=0;exitDy=0;entryX=0.5;entryY=1;entryDx=0;entryDy=0;" parent="1" source="106" target="158" edge="1">
                    <mxGeometry relative="1" as="geometry">
                        <mxPoint x="3" y="-658" as="targetPoint"/>
                        <Array as="points"/>
                    </mxGeometry>
                </mxCell>
                <mxCell id="106" value="&lt;b&gt;&lt;font style=&quot;font-size: 24px;&quot;&gt;Job&amp;nbsp; Manager&lt;/font&gt;&lt;/b&gt;" style="whiteSpace=wrap;html=1;aspect=fixed;" parent="1" vertex="1">
                    <mxGeometry x="-64" y="-456" width="133" height="133" as="geometry"/>
                </mxCell>
                <mxCell id="107" value="" style="edgeStyle=segmentEdgeStyle;endArrow=classic;html=1;curved=0;rounded=0;endSize=8;startSize=8;entryX=0.5;entryY=0;entryDx=0;entryDy=0;" parent="1" target="101" edge="1">
                    <mxGeometry width="50" height="50" relative="1" as="geometry">
                        <mxPoint x="-301" y="-229" as="sourcePoint"/>
                        <mxPoint x="-95" y="-306" as="targetPoint"/>
                        <Array as="points">
                            <mxPoint x="-301" y="-158"/>
                            <mxPoint x="-378" y="-158"/>
                        </Array>
                    </mxGeometry>
                </mxCell>
                <mxCell id="108" value="" style="edgeStyle=segmentEdgeStyle;endArrow=classic;html=1;curved=0;rounded=0;endSize=8;startSize=8;entryX=0.5;entryY=0;entryDx=0;entryDy=0;" parent="1" edge="1">
                    <mxGeometry width="50" height="50" relative="1" as="geometry">
                        <mxPoint x="-306" y="-234" as="sourcePoint"/>
                        <mxPoint x="-599.4999999999998" y="-99" as="targetPoint"/>
                        <Array as="points">
                            <mxPoint x="-306" y="-226"/>
                            <mxPoint x="-301" y="-226"/>
                            <mxPoint x="-301" y="-158"/>
                            <mxPoint x="-600" y="-158"/>
                        </Array>
                    </mxGeometry>
                </mxCell>
                <mxCell id="109" value="" style="edgeStyle=segmentEdgeStyle;endArrow=classic;html=1;curved=0;rounded=0;endSize=8;startSize=8;entryX=0.5;entryY=0;entryDx=0;entryDy=0;" parent="1" edge="1">
                    <mxGeometry width="50" height="50" relative="1" as="geometry">
                        <mxPoint x="-295" y="-226" as="sourcePoint"/>
                        <mxPoint x="-115.49999999999977" y="-100" as="targetPoint"/>
                        <Array as="points">
                            <mxPoint x="-303" y="-226"/>
                            <mxPoint x="-303" y="-157"/>
                            <mxPoint x="-115" y="-157"/>
                        </Array>
                    </mxGeometry>
                </mxCell>
                <mxCell id="112" value="&lt;span style=&quot;color: rgb(0, 0, 0); font-family: Helvetica; font-size: 14px; font-style: normal; font-variant-ligatures: normal; font-variant-caps: normal; font-weight: 700; letter-spacing: normal; orphans: 2; text-align: center; text-indent: 0px; text-transform: none; widows: 2; word-spacing: 0px; -webkit-text-stroke-width: 0px; white-space: normal; background-color: rgb(251, 251, 251); text-decoration-thickness: initial; text-decoration-style: initial; text-decoration-color: initial; float: none; display: inline !important;&quot;&gt;/odom&lt;/span&gt;" style="text;whiteSpace=wrap;html=1;" parent="1" vertex="1">
                    <mxGeometry x="-374" y="-138" width="66" height="39" as="geometry"/>
                </mxCell>
                <mxCell id="113" value="&lt;div style=&quot;text-align: center;&quot;&gt;&lt;span style=&quot;background-color: transparent; font-size: 14px;&quot;&gt;JOSN -&amp;gt; MQTT 메시지&amp;nbsp;&lt;/span&gt;&lt;/div&gt;" style="text;whiteSpace=wrap;html=1;fontStyle=1" parent="1" vertex="1">
                    <mxGeometry x="482" y="11" width="149" height="39" as="geometry"/>
                </mxCell>
                <mxCell id="115" value="" style="rounded=1;whiteSpace=wrap;html=1;strokeWidth=2;fillWeight=4;hachureGap=8;hachureAngle=45;fillColor=#1ba1e2;sketch=1;" parent="1" vertex="1">
                    <mxGeometry x="27" y="-41" width="392" height="75.5" as="geometry"/>
                </mxCell>
                <mxCell id="116" value="&lt;div style=&quot;text-align: center;&quot;&gt;&lt;span style=&quot;font-size: 14px;&quot;&gt;&lt;b&gt;임시 메모리 영역&lt;/b&gt;&lt;/span&gt;&lt;/div&gt;" style="text;whiteSpace=wrap;html=1;" parent="1" vertex="1">
                    <mxGeometry x="148" y="-28" width="111" height="39" as="geometry"/>
                </mxCell>
                <mxCell id="118" value="&lt;font style=&quot;font-size: 24px;&quot;&gt;&lt;b&gt;INIT&lt;/b&gt;&lt;/font&gt;" style="html=1;whiteSpace=wrap;container=1;recursiveResize=0;collapsible=0;" parent="1" vertex="1">
                    <mxGeometry x="-133" y="-1001" width="160" height="70" as="geometry"/>
                </mxCell>
                <mxCell id="119" value="" style="triangle;html=1;whiteSpace=wrap;" parent="118" vertex="1">
                    <mxGeometry x="20" y="20" width="20" height="30" as="geometry"/>
                </mxCell>
                <mxCell id="172" style="edgeStyle=none;html=1;exitX=0;exitY=0.5;exitDx=0;exitDy=0;entryX=1;entryY=0.5;entryDx=0;entryDy=0;" edge="1" parent="1" source="120" target="169">
                    <mxGeometry relative="1" as="geometry"/>
                </mxCell>
                <mxCell id="179" style="edgeStyle=none;html=1;exitX=0.5;exitY=1;exitDx=0;exitDy=0;entryX=1;entryY=0.5;entryDx=0;entryDy=0;" edge="1" parent="1" source="120" target="175">
                    <mxGeometry relative="1" as="geometry">
                        <Array as="points">
                            <mxPoint x="-98" y="-765"/>
                        </Array>
                    </mxGeometry>
                </mxCell>
                <mxCell id="180" style="edgeStyle=none;html=1;exitX=0.25;exitY=0;exitDx=0;exitDy=0;entryX=1;entryY=0.5;entryDx=0;entryDy=0;" edge="1" parent="1" source="120" target="177">
                    <mxGeometry relative="1" as="geometry"/>
                </mxCell>
                <mxCell id="120" value="&lt;b&gt;&lt;font style=&quot;font-size: 24px;&quot;&gt;IDLE&lt;/font&gt;&lt;/b&gt;" style="html=1;whiteSpace=wrap;container=1;recursiveResize=0;collapsible=0;" parent="1" vertex="1">
                    <mxGeometry x="-132" y="-855" width="160" height="70" as="geometry"/>
                </mxCell>
                <mxCell id="121" value="" style="triangle;html=1;whiteSpace=wrap;" parent="120" vertex="1">
                    <mxGeometry x="20" y="20" width="20" height="30" as="geometry"/>
                </mxCell>
                <mxCell id="136" style="edgeStyle=none;html=1;exitX=1;exitY=0.5;exitDx=0;exitDy=0;" parent="1" source="124" edge="1">
                    <mxGeometry relative="1" as="geometry">
                        <mxPoint x="336.272727272727" y="-819.909090909091" as="targetPoint"/>
                    </mxGeometry>
                </mxCell>
                <mxCell id="124" value="&lt;span style=&quot;font-size: 18px;&quot;&gt;&lt;b&gt;NAVI&amp;nbsp;&lt;/b&gt;&lt;/span&gt;&lt;div&gt;&lt;span style=&quot;font-size: 18px;&quot;&gt;&lt;b&gt;&amp;nbsp;PLANNER&lt;/b&gt;&lt;/span&gt;&lt;div&gt;&lt;span style=&quot;font-size: 18px;&quot;&gt;&lt;b&gt;[Global]&lt;/b&gt;&lt;/span&gt;&lt;/div&gt;&lt;/div&gt;" style="html=1;whiteSpace=wrap;container=1;recursiveResize=0;collapsible=0;" parent="1" vertex="1">
                    <mxGeometry x="102" y="-855" width="160" height="70" as="geometry"/>
                </mxCell>
                <mxCell id="126" value="&lt;b&gt;&lt;font style=&quot;font-size: 18px;&quot;&gt;&amp;nbsp; &amp;nbsp; &amp;nbsp; &amp;nbsp;Model Predictive Control&lt;/font&gt;&lt;/b&gt;" style="html=1;whiteSpace=wrap;container=1;recursiveResize=0;collapsible=0;" parent="1" vertex="1">
                    <mxGeometry x="337" y="-855" width="200" height="70" as="geometry"/>
                </mxCell>
                <mxCell id="128" value="&lt;b&gt;&lt;font style=&quot;font-size: 18px;&quot;&gt;&amp;nbsp; &amp;nbsp; &amp;nbsp;pure_pursuit_planner&lt;/font&gt;&lt;/b&gt;" style="html=1;whiteSpace=wrap;container=1;recursiveResize=0;collapsible=0;" parent="1" vertex="1">
                    <mxGeometry x="334" y="-740" width="198" height="70" as="geometry"/>
                </mxCell>
                <mxCell id="132" value="" style="endArrow=classic;html=1;exitX=0.5;exitY=1;exitDx=0;exitDy=0;entryX=0.5;entryY=0;entryDx=0;entryDy=0;" parent="1" source="118" target="120" edge="1">
                    <mxGeometry width="50" height="50" relative="1" as="geometry">
                        <mxPoint x="246" y="-614" as="sourcePoint"/>
                        <mxPoint x="296" y="-664" as="targetPoint"/>
                    </mxGeometry>
                </mxCell>
                <mxCell id="133" value="odom 및 라이더 데이터 취득" style="text;whiteSpace=wrap;" parent="1" vertex="1">
                    <mxGeometry x="-143" y="-915" width="154" height="36" as="geometry"/>
                </mxCell>
                <mxCell id="135" value="" style="endArrow=classic;startArrow=classic;html=1;exitX=1;exitY=0.5;exitDx=0;exitDy=0;entryX=0;entryY=0.5;entryDx=0;entryDy=0;" parent="1" source="120" target="124" edge="1">
                    <mxGeometry width="50" height="50" relative="1" as="geometry">
                        <mxPoint x="246" y="-612" as="sourcePoint"/>
                        <mxPoint x="296" y="-662" as="targetPoint"/>
                    </mxGeometry>
                </mxCell>
                <mxCell id="138" value="" style="edgeStyle=segmentEdgeStyle;endArrow=classic;html=1;curved=0;rounded=0;endSize=8;startSize=8;exitX=1;exitY=0.5;exitDx=0;exitDy=0;entryX=0;entryY=0.5;entryDx=0;entryDy=0;" parent="1" source="124" target="128" edge="1">
                    <mxGeometry width="50" height="50" relative="1" as="geometry">
                        <mxPoint x="246" y="-612" as="sourcePoint"/>
                        <mxPoint x="296" y="-662" as="targetPoint"/>
                        <Array as="points">
                            <mxPoint x="291" y="-820"/>
                            <mxPoint x="291" y="-705"/>
                        </Array>
                    </mxGeometry>
                </mxCell>
                <mxCell id="139" value="choice" style="text;whiteSpace=wrap;" parent="1" vertex="1">
                    <mxGeometry x="290.99818181818154" y="-774.0027272727275" width="109" height="36" as="geometry"/>
                </mxCell>
                <mxCell id="140" value="Global Planner    전체 경로 생성 (ex. 시작점 → 목표점까지)&#xa;Local Planner (또는 Local Controller)    Global Path를 따라가며, 실시간 장애물 회피 + 제어 명령 생성" style="text;whiteSpace=wrap;" parent="1" vertex="1">
                    <mxGeometry x="24.00181818181801" y="-905.9963636363638" width="550" height="51" as="geometry"/>
                </mxCell>
                <mxCell id="144" value="" style="edgeStyle=segmentEdgeStyle;endArrow=classic;html=1;curved=0;rounded=0;endSize=8;startSize=8;exitX=1;exitY=0.5;exitDx=0;exitDy=0;" parent="1" source="102" edge="1">
                    <mxGeometry width="50" height="50" relative="1" as="geometry">
                        <mxPoint x="289" y="-285" as="sourcePoint"/>
                        <mxPoint x="-9" y="-322" as="targetPoint"/>
                        <Array as="points">
                            <mxPoint x="-9" y="-29"/>
                        </Array>
                    </mxGeometry>
                </mxCell>
                <mxCell id="145" value="&lt;span style=&quot;color: rgb(0, 0, 0); font-family: Helvetica; font-style: normal; font-variant-ligatures: normal; font-variant-caps: normal; letter-spacing: normal; orphans: 2; text-align: center; text-indent: 0px; text-transform: none; widows: 2; word-spacing: 0px; -webkit-text-stroke-width: 0px; white-space: normal; background-color: rgb(251, 251, 251); text-decoration-thickness: initial; text-decoration-style: initial; text-decoration-color: initial; float: none; display: inline !important;&quot;&gt;&lt;font style=&quot;font-size: 36px;&quot;&gt;Jobs ( target pose...)&lt;/font&gt;&lt;/span&gt;" style="text;whiteSpace=wrap;html=1;fontStyle=1" parent="1" vertex="1">
                    <mxGeometry x="-120" y="-219" width="372" height="39" as="geometry"/>
                </mxCell>
                <mxCell id="150" value="&lt;b&gt;&lt;font style=&quot;font-size: 24px;&quot;&gt;MapServer&lt;/font&gt;&lt;/b&gt;" style="whiteSpace=wrap;html=1;aspect=fixed;" parent="1" vertex="1">
                    <mxGeometry x="-667" y="154" width="133" height="133" as="geometry"/>
                </mxCell>
                <mxCell id="152" value="&lt;font style=&quot;font-size: 24px;&quot;&gt;&lt;b&gt;/&lt;font style=&quot;&quot;&gt;cmd_vel&lt;/font&gt;&lt;/b&gt;&lt;/font&gt;" style="ellipse;whiteSpace=wrap;html=1;" vertex="1" parent="1">
                    <mxGeometry x="674" y="-818" width="120" height="80" as="geometry"/>
                </mxCell>
                <mxCell id="154" value="" style="endArrow=classic;html=1;entryX=0;entryY=0.5;entryDx=0;entryDy=0;exitX=0.995;exitY=0.627;exitDx=0;exitDy=0;exitPerimeter=0;" edge="1" parent="1" source="147" target="152">
                    <mxGeometry width="50" height="50" relative="1" as="geometry">
                        <mxPoint x="235" y="-519" as="sourcePoint"/>
                        <mxPoint x="285" y="-569" as="targetPoint"/>
                    </mxGeometry>
                </mxCell>
                <mxCell id="158" value="&lt;font style=&quot;font-size: 24px;&quot;&gt;target pose&lt;/font&gt;" style="ellipse;whiteSpace=wrap;html=1;" vertex="1" parent="1">
                    <mxGeometry x="-57.5" y="-738" width="120" height="80" as="geometry"/>
                </mxCell>
                <mxCell id="160" value="&lt;span style=&quot;color: rgb(0, 0, 0); font-family: Helvetica; font-style: normal; font-variant-ligatures: normal; font-variant-caps: normal; letter-spacing: normal; orphans: 2; text-align: center; text-indent: 0px; text-transform: none; widows: 2; word-spacing: 0px; -webkit-text-stroke-width: 0px; white-space: normal; background-color: rgb(251, 251, 251); text-decoration-thickness: initial; text-decoration-style: initial; text-decoration-color: initial; float: none; display: inline !important;&quot;&gt;&lt;font style=&quot;font-size: 24px;&quot;&gt;&lt;b&gt;NAVI&lt;/b&gt;&lt;/font&gt;&lt;/span&gt;" style="text;whiteSpace=wrap;html=1;" vertex="1" parent="1">
                    <mxGeometry x="-32.001818181818464" y="-773.9972727272727" width="88" height="36" as="geometry"/>
                </mxCell>
                <mxCell id="161" value="" style="edgeStyle=segmentEdgeStyle;endArrow=classic;html=1;curved=0;rounded=0;endSize=8;startSize=8;exitX=1;exitY=0.5;exitDx=0;exitDy=0;entryX=0.5;entryY=1;entryDx=0;entryDy=0;" edge="1" parent="1" source="158" target="124">
                    <mxGeometry width="50" height="50" relative="1" as="geometry">
                        <mxPoint x="426" y="-519" as="sourcePoint"/>
                        <mxPoint x="216" y="-589" as="targetPoint"/>
                        <Array as="points"/>
                    </mxGeometry>
                </mxCell>
                <mxCell id="163" value="&lt;span style=&quot;font-size: 24px;&quot;&gt;&lt;b&gt;MQTT&lt;/b&gt;&lt;/span&gt;" style="ellipse;whiteSpace=wrap;html=1;" vertex="1" parent="1">
                    <mxGeometry x="493.5" y="108" width="116.5" height="80" as="geometry"/>
                </mxCell>
                <mxCell id="164" value="&lt;font style=&quot;font-size: 24px;&quot;&gt;&lt;b&gt;FMS&lt;/b&gt;&lt;/font&gt;" style="whiteSpace=wrap;html=1;aspect=fixed;" vertex="1" parent="1">
                    <mxGeometry x="486.25" y="269" width="131" height="131" as="geometry"/>
                </mxCell>
                <mxCell id="165" value="" style="endArrow=classic;startArrow=classic;html=1;entryX=0.5;entryY=1;entryDx=0;entryDy=0;exitX=0.5;exitY=0;exitDx=0;exitDy=0;" edge="1" parent="1" source="163" target="97">
                    <mxGeometry width="50" height="50" relative="1" as="geometry">
                        <mxPoint x="153" y="-57" as="sourcePoint"/>
                        <mxPoint x="203" y="-107" as="targetPoint"/>
                    </mxGeometry>
                </mxCell>
                <mxCell id="166" value="" style="endArrow=classic;startArrow=classic;html=1;entryX=0.5;entryY=1;entryDx=0;entryDy=0;exitX=0.5;exitY=0;exitDx=0;exitDy=0;" edge="1" parent="1" source="164" target="163">
                    <mxGeometry width="50" height="50" relative="1" as="geometry">
                        <mxPoint x="562" y="116" as="sourcePoint"/>
                        <mxPoint x="562" y="58" as="targetPoint"/>
                    </mxGeometry>
                </mxCell>
                <mxCell id="169" value="&lt;span style=&quot;font-size: 24px;&quot;&gt;&lt;b&gt;NODES_EXIT&lt;/b&gt;&lt;/span&gt;" style="html=1;whiteSpace=wrap;container=1;recursiveResize=0;collapsible=0;" vertex="1" parent="1">
                    <mxGeometry x="-399" y="-856" width="160" height="70" as="geometry"/>
                </mxCell>
                <mxCell id="170" value="" style="triangle;html=1;whiteSpace=wrap;" vertex="1" parent="169">
                    <mxGeometry x="20" y="20" width="20" height="30" as="geometry"/>
                </mxCell>
                <mxCell id="175" value="&lt;span style=&quot;font-size: 24px;&quot;&gt;&lt;b&gt;REBOOT&lt;/b&gt;&lt;/span&gt;" style="html=1;whiteSpace=wrap;container=1;recursiveResize=0;collapsible=0;" vertex="1" parent="1">
                    <mxGeometry x="-399" y="-751" width="160" height="70" as="geometry"/>
                </mxCell>
                <mxCell id="176" value="" style="triangle;html=1;whiteSpace=wrap;" vertex="1" parent="175">
                    <mxGeometry x="20" y="20" width="20" height="30" as="geometry"/>
                </mxCell>
                <mxCell id="177" value="&lt;span style=&quot;font-size: 24px;&quot;&gt;&lt;b&gt;POWEROFF&lt;/b&gt;&lt;/span&gt;" style="html=1;whiteSpace=wrap;container=1;recursiveResize=0;collapsible=0;" vertex="1" parent="1">
                    <mxGeometry x="-399" y="-968" width="160" height="70" as="geometry"/>
                </mxCell>
                <mxCell id="178" value="" style="triangle;html=1;whiteSpace=wrap;" vertex="1" parent="177">
                    <mxGeometry x="20" y="20" width="20" height="30" as="geometry"/>
                </mxCell>
            </root>
        </mxGraphModel>
    </diagram>
</mxfile>